<svg xmlns="http://www.w3.org/2000/svg" style="display: none;">
    <symbol id="logo-mixd" viewBox="0 0 16 16">
      <path d="M14.4 5.8c-1-.2-2 .5-2.2 1.5 0 .2-.5 2.8-3.2 2.3 0 0 6.3 1.8 6.9-1.6.2-1-.4-2-1.5-2.2zM3.8 8.6c0-.2.5-2.8 3.2-2.4C7 6.2.7 4.4.1 7.8c-.2 1 .5 2 1.5 2.2 1 .3 2-.3 2.2-1.4zm5.6-4.7c.2.1 2.1 1.9.4 4 0 0 4.8-4.5 2.1-6.8-.8-.7-2-.6-2.7.2-.7.7-.6 1.9.2 2.6zm-2.8 8.2s-.1 0 0 0c-.2-.1-2.1-1.9-.4-4 0 0-4.8 4.5-2.1 6.8.8.7 2 .6 2.7-.2.6-.7.5-1.9-.2-2.6zM5.3 4.5c.2-.1 2.7-.9 3.6 1.6 0 0-1.6-6.4-4.9-5.2-1 .4-1.5 1.5-1.1 2.4.3 1 1.4 1.5 2.4 1.2zm5.5 7c-.2.1-2.7.9-3.6-1.6 0 0 1.6 6.4 4.9 5.2 1-.4 1.5-1.4 1.1-2.4-.3-1-1.4-1.5-2.4-1.2z"/>
    </symbol></svg>