<svg xmlns="http://www.w3.org/2000/svg" width="16px" height="16px" viewBox="0 0 16 16">
<path d="M14.4,5.8c-1-0.2-2,0.5-2.2,1.5c0,0,0,0,0,0c0,0.2-0.5,2.8-3.2,2.3c0,0,6.3,1.8,6.9-1.6c0,0,0,0,0,0C16.1,7,15.5,6,14.4,5.8
	z M3.8,8.6c0-0.2,0.5-2.8,3.2-2.4c0,0-6.3-1.8-6.9,1.6c0,0,0,0,0,0c-0.2,1,0.5,2,1.5,2.2C2.6,10.3,3.6,9.7,3.8,8.6z M9.4,3.9
	C9.4,3.9,9.4,3.9,9.4,3.9c0.2,0.1,2.1,1.9,0.4,4c0,0,4.8-4.5,2.1-6.8c0,0,0,0,0,0c-0.8-0.7-2-0.6-2.7,0.2C8.5,2,8.6,3.2,9.4,3.9z
	 M6.6,12.1C6.6,12.1,6.5,12.1,6.6,12.1c-0.2-0.1-2.1-1.9-0.4-4c0,0-4.8,4.5-2.1,6.8c0,0,0,0,0,0c0.8,0.7,2,0.6,2.7-0.2
	C7.4,14,7.3,12.8,6.6,12.1z M5.3,4.5C5.3,4.5,5.3,4.5,5.3,4.5C5.5,4.4,8,3.6,8.9,6.1c0,0-1.6-6.4-4.9-5.2c0,0,0,0,0,0
	C3,1.3,2.5,2.4,2.9,3.3C3.2,4.3,4.3,4.8,5.3,4.5z M10.8,11.5c-0.2,0.1-2.7,0.9-3.6-1.6c0,0,1.6,6.4,4.9,5.2c0,0,0,0,0,0
	c1-0.4,1.5-1.4,1.1-2.4C12.9,11.7,11.8,11.2,10.8,11.5z"/>
</svg>
